<svg xmlns="http://www.w3.org/2000/svg" viewBox="0 0 2447 370" fill-rule="evenodd" clip-rule="evenodd" stroke-linejoin="round" stroke-miterlimit="2">
  <path d="M1742.22 0c33.04 32.33 54.24 148.4 54.24 148.4-39.25 45.36-91.84 73.66-150.13 93.4-62.43 6.6-128.92 8.94-194.68 11.17-208.31 3.14-417.96 2.17-628.44-.52C685.93 200.88 571.57 116.05 496.74 0h1245.48z" fill="#1c1606"/>
  <path d="M892.19 281l127.85-6.64 407.24 44.74a947.99 947.99 0 01-203.01 21.87c-116.81 0-228.71-21.2-332.08-59.97z" fill="#339ddc"/>
  <path d="M1876.89 368.5l-449.61-49.4a938.59 938.59 0 00198.12-67.17h208.89l42.6 116.58z" fill="#fab119"/>
  <path d="M2336.13 251.93h-501.84l-7.13-19.52 326.6-16.97L2336.13 0v251.93zM112.27 251.93v-93.15l108.6 93.15h-108.6z" fill="#f2d4d3"/>
  <path d="M1451.65 251.93c-142.92 11.28-287.1 17.5-431.6 22.43-68.23-2.47-132.58-10.33-194.63-21.39l-2.2-1.04h628.43z" fill="#1f1b08"/>
  <path d="M1633.39 248.14l-8.03 3.79c-56.51 6.2-115 3.57-173.71 0l194.68-10.12-12.94 6.33z" fill="#2f2c10"/>
  <path d="M1020.04 274.36l431.6-22.43h173.72a936.89 936.89 0 01-198.08 67.17l-407.24-44.74z" fill="#324e14"/>
  <path d="M1646.33 241.8l180.83-9.39 7.13 19.52h-208.93l8.03-3.79 12.94-6.33z" fill="#ed8f14"/>
  <path d="M220.86 251.93H815.9l9.52 1.04A930.72 930.72 0 00892.2 281l-601.01 31.24-70.32-60.31z" fill="#a3c683"/>
  <path d="M825.42 252.97l194.62 21.39L892.2 281a926.65 926.65 0 01-66.77-28.03z" fill="#20635f"/>
  <path d="M815.9 251.93H220.86l-108.6-93.15V0h329.92L313.67 196.74l502.23 55.19zM2336.13 0l-182.37 215.44-326.6 16.97-30.7-84A952.43 952.43 0 001951.8 0h384.33z" fill="#95a26b"/>
  <path d="M1951.8 0a952.43 952.43 0 01-155.34 148.4L1742.22 0h209.58z" fill="#1d424d"/>
  <path d="M496.74 0A950.46 950.46 0 00823.2 251.93c-2.38.13-4.83.1-7.31 0l-502.23-55.19L442.17 0h54.57z" fill="#8f6009"/>
  <path d="M825.42 252.97l-9.52-1.04h7.31l2.21 1.04z" fill="#9d770c"/>
  <path d="M1646.33 241.8a946.63 946.63 0 00150.13-93.4l30.7 84.01-180.83 9.4z" fill="#8f6009"/>
  <path d="M112.26 0v158.78L1.72 63.97 56.58 0h55.68z" fill="#a3c683" fill-rule="nonzero"/>
</svg>